# xmcd CD database file
# Copyright (C) 1996 Ti Kan
#
# Track frame offsets:
# 	150
# 	17782
# 	29897
# 	42955
# 	52052
# 	82105
# 	92460
# 	106987
# 	121870
# 	137862
# 	151210
# 	168037
#
# Disc length: 2398 seconds
#
# Revision: 1
# Processed by: cddbd v1.4b41PL1 Copyright (c) Steve Scherf et al.
# Submitted via: DiscPlay 3.4.1
#
DISCID=98095c0c
DTITLE=SUSAN MC CANN - FROM IRELAND WITH LOVE
DYEAR=1900
DGENRE=
TTITLE0=DUBLIN TIN MY TEARS
TTITLE1=OLD DUNGARVANOAK
TTITLE2=SARAH JANE
TTITLE3=DAN O HARA
TTITLE4=THE TWO J LOVE SO WELL
TTITLE5=GALWAY RACES
TTITLE6=WHAT PRICE IS PEACE
TTITLE7=IF I CCAME BACK HOME
TTITLE8=FARE WELL MY GREEN VALLEY
TTITLE9=WILD COLONEAL BOY
TTITLE10=LAKES OF COLLFIN
TTITLE11=IRISH ROOVER
EXTD=
EXTT0=
EXTT1=
EXTT2=
EXTT3=
EXTT4=
EXTT5=
EXTT6=
EXTT7=
EXTT8=
EXTT9=
EXTT10=
EXTT11=
PLAYORDER=
